# xmcd
#
# Track frame offsets: 
#        150
#        13082
#        25494
#        42262
#        54087
#        69655
#        81937
#        94027
#        109220
#        122200
#        137830
#        150447
#
# Disc length: 2145 seconds
#
# Revision: 0
# Processed by: cddbd v1.5.2PL0 Copyright (c) Steve Scherf et al.
# Submitted via: ExactAudioCopyFreeDBPlugin 1.0
#
DISCID=9b085f0c
DTITLE=Guy and Ralna - Only You
DYEAR=2008
DGENRE=Country
TTITLE0=Can't Help Falling In Love
TTITLE1=Only You
TTITLE2=And I Love You So
TTITLE3=Old Fashioned Love Song
TTITLE4=Feelings
TTITLE5=If I Didn't Love You
TTITLE6=This Guy's In Love With You
TTITLE7=The End of The World
TTITLE8=Listen To My Smile
TTITLE9=She Knows Me Better
TTITLE10=United We Stand
TTITLE11=Love Me Tender
EXTD=
EXTT0=
EXTT1=
EXTT2=
EXTT3=
EXTT4=
EXTT5=
EXTT6=
EXTT7=
EXTT8=
EXTT9=
EXTT10=
EXTT11=
PLAYORDER=
